<svg xmlns="http://www.w3.org/2000/svg" viewBox="0 0 496 512" fill="currentColor">
  <path d="M248 8C111 8 0 119 0 256c0 110.5 69.8 204.5 168 238.1-2.3-20.2-4.3-51.3.9-73.5 4.7-20.2 30.4-129.2 30.4-129.2s-7.7-15.4-7.7-38.1c0-35.7 20.7-62.3 46.4-62.3 21.9 0 32.4 16.4 32.4 36 0 21.9-14 54.7-21.2 85.1-6 25.5 12.7 46.4 37.7 46.4 45.2 0 79.9-47.6 79.9-116.3 0-60.7-43.6-103.2-106-103.2-72.2 0-114.6 54.1-114.6 110 0 21.9 8.5 45.6 19.2 58.4 2.1 2.6 2.4 4.8 1.8 7.4-2 8.2-6.2 25.8-7 29.4-1.1 4.7-3.7 5.7-8.6 3.4-32.1-15-52.2-62.1-52.2-100 0-81.4 59.2-156.3 170.8-156.3 89.5 0 159.2 63.9 159.2 149.4 0 89-56.1 160.5-134 160.5-26.2 0-50.8-13.6-59.2-29.6 0 0-12.6 50.1-15.3 62.3-4.6 20.1-17 45.1-25.3 60.4C199.3 502.9 223.4 504 248 504c137 0 248-111 248-248S385 8 248 8z"/>
</svg>