<svg xmlns="http://www.w3.org/2000/svg" viewBox="0 0 448 512" fill="currentColor">
  <path d="M380.9 97.1C339 55.1 283.2 32 224.9 32 107.5 32 12 127.5 12 244.9c0 41.3 10.8 81.6 31.4 117L0 480l121.8-42.8c34.3 18.8 72.9 28.6 112.5 28.6h.5c117.4 0 212.9-95.5 212.9-212.9 0-58.3-23.1-114.1-66.8-156.8zM224.8 426.6h-.4c-35.4-.1-70-9.5-100.1-27.4l-7.2-4.3-72.3 25.4 24.9-74.6-4.8-7.5c-19.6-30.7-29.9-66.3-29.9-102.4 0-106.1 86.3-192.4 192.5-192.4 51.4 0 99.7 20 136 56.3 36.3 36.3 56.3 84.6 56.3 136 0 106.2-86.3 192.9-191 192.9zm110.6-143.6c-6.1-3.1-36-17.7-41.6-19.7-5.6-2.1-9.7-3.1-13.8 3.1s-15.9 19.7-19.5 23.8c-3.6 4.1-7.2 4.6-13.3 1.5-36-18-59.6-32.2-83.5-73.1-6.3-10.9 6.3-10.1 18-33.6 2-4.1 1-7.6-.5-10.7-1.5-3.1-13.8-33.2-18.9-45.5-5-12.1-10.1-10.5-13.8-10.7-3.6-.2-7.6-.2-11.7-.2s-10.7 1.5-16.3 7.6c-5.6 6.1-21.5 21-21.5 51.1s22 59.2 25.1 63.3c3.1 4.1 43.4 66.2 105.2 92.8 14.7 6.3 26.2 10.1 35.1 12.9 14.7 4.6 28.1 4 38.6 2.4 11.8-1.8 36-14.7 41.1-28.9 5.1-14.2 5.1-26.4 3.6-28.9-1.5-2.5-5.6-4-11.7-7.1z"/>
</svg>