<svg xmlns="http://www.w3.org/2000/svg" viewBox="0 0 448 512" fill="currentColor"><path d="M224,202.66A53.34,53.34,0,1,0,277.34,256,53.38,53.38,0,0,0,224,202.66Zm124.71-41A54,54,0,0,0,318.09,131C296.21,120,224,120,224,120s-72.21,0-94.09,10.99A54,54,0,0,0,99.29,161.71C88.3,172.87,88,224,88,224s.3,51.13,11.29,73a54,54,0,0,0,30.62,30.62C151.79,338,224,338,224,338s72.21,0,94.09-11a54,54,0,0,0,30.62-30.62C359.7,275.13,360,224,360,224S359.7,172.87,348.71,161.71ZM224,314a90,90,0,1,1,90-90A90,90,0,0,1,224,314Zm95-162a21,21,0,1,1,21-21A21,21,0,0,1,319,152Z"/></svg>